<svg aria-hidden="true" style="position:absolute;width:0;height:0;overflow:hidden" xmlns="http://www.w3.org/2000/svg">

  <defs>
    <symbol id="logo" viewBox="0 0 107 32">
      <path fill="#ff6b0a" style="fill:var(--color1, #ff6b0a)" d="M106.667 0v32H59.536V0h47.131zM74.42 8.811v13.927l.001.044a.842.842 0 0 1-.001.087c-.007.08.015.128.107.115a.485.485 0 0 1 .066-.001l.033.001h3.582c.075.001.112.001.129-.017s.016-.051.014-.116l-.001-.078V8.83l-.001-.033a.485.485 0 0 1 .001-.066c.008-.082-.02-.125-.109-.115-.018.002-.036.001-.054.001l-.028-.001h-3.55l-.062-.001c-.065-.001-.098-.001-.114.015s-.016.049-.015.116l.001.064zm19.579-.194h-5.863c-1.954 0-3.908 0-5.86-.002h-.133c-.066-.003-.089.028-.084.089a.486.486 0 0 1 0 .054v3.398c0 .072-.001.107.017.124s.051.017.118.016H85.923c.12 0 .18 0 .209.03s.029.087.029.2v10.335c-.001.059-.001.09.014.106.017.018.052.017.127.017h3.571c.111 0 .166 0 .193-.028s.027-.08.027-.186V12.488l-.001-.059c-.001-.063-.001-.097.015-.114.018-.019.055-.018.133-.018h3.798c.162 0 .162 0 .164-.159V8.759c.001-.072.001-.108-.016-.126s-.053-.017-.123-.016L94 8.618z"/>
      <path fill="#010101" style="fill:var(--color2, #010101)" d="m47.132 0 12.403 16-12.403 16H0V0h47.132zm-26.38 13.662.215.174a.371.371 0 0 0 .106-.107.256.256 0 0 1 .02-.026c.254-.302.507-.606.76-.91.507-.606 1.012-1.212 1.518-1.82.101-.122.097-.177-.018-.276a12.617 12.617 0 0 0-.277-.233c-.803-.657-1.685-1.17-2.684-1.467a9.43 9.43 0 0 0-2.043-.353c-.905-.061-1.802-.031-2.691.174-3.112.716-5.434 3.292-5.707 6.594a7.795 7.795 0 0 0 .225 2.638c.519 1.96 1.645 3.461 3.434 4.45.975.539 2.03.823 3.14.912.94.076 1.87.018 2.788-.189 1.553-.35 2.925-1.056 4.146-2.067a.333.333 0 0 0 .137-.289c-.004-1.572-.004-3.145-.003-4.717v-1.179a.66.66 0 0 0-.003-.062c-.003-.046-.006-.092.006-.134.015-.049-.012-.077-.037-.104-.021-.022-.042-.044-.039-.077.007-.054-.03-.062-.073-.062h-6.556l-.038.001c-.026.001-.052.002-.077-.001-.066-.007-.087.026-.083.087a.657.657 0 0 1 .001.077l-.001.038V17.839l-.001.074c-.001.063-.002.096.014.112s.052.017.125.016H19.772c.072-.001.107-.001.124.016.016.016.015.048.014.11l-.001.078v.679c0 .308 0 .311-.279.445-.818.391-1.681.503-2.573.391-.991-.123-1.784-.591-2.365-1.401-.378-.527-.585-1.122-.662-1.763-.097-.818.002-1.605.373-2.348.448-.892 1.125-1.533 2.098-1.827.682-.207 1.373-.153 2.056-.003.619.135 1.159.437 1.657.816.182.138.359.281.539.427zm18.346-2.98c-1.528-1.39-3.348-2.052-5.229-2.066-.869.002-1.518.072-2.207.251-1.998.521-3.563 1.638-4.602 3.422-1.067 1.83-1.283 3.793-.687 5.812.667 2.257 2.089 3.9 4.29 4.815 1.69.701 3.44.795 5.206.332 2.051-.537 3.624-1.725 4.654-3.578.869-1.562 1.102-3.238.778-4.987-.291-1.572-1.017-2.919-2.203-4zm-8.437 3.528c.666-1.227 1.729-1.815 2.762-1.838 2.094-.005 3.464 1.173 3.837 2.806.226.984.125 1.94-.358 2.834-.57 1.05-1.458 1.661-2.654 1.797-1.156.133-2.165-.194-2.99-1.025a3.579 3.579 0 0 1-.983-1.914c-.172-.928-.066-1.827.386-2.66z"/>
    </symbol>
    <symbol id="javascript" viewBox="0 0 32 32">
      <path fill="#f7df1e" style="fill:var(--color3, #f7df1e)" d="M0 0h32v32H0V0z"/>
      <path style="fill:var(--color4, #000)" d="m8.414 26.741 2.449-1.482c.473.838.902 1.546 1.933 1.546.988 0 1.611-.387 1.611-1.89V14.69h3.007v10.267c0 3.115-1.826 4.532-4.489 4.532-2.406 0-3.802-1.246-4.511-2.75zm10.634-.322 2.448-1.418c.645 1.053 1.482 1.826 2.964 1.826 1.246 0 2.041-.623 2.041-1.482 0-1.031-.816-1.396-2.191-1.997l-.752-.323c-2.17-.923-3.609-2.083-3.609-4.532 0-2.256 1.718-3.974 4.404-3.974 1.912 0 3.287.666 4.274 2.406l-2.341 1.504c-.516-.924-1.074-1.289-1.933-1.289-.881 0-1.439.558-1.439 1.289 0 .902.558 1.268 1.847 1.826l.752.322c2.556 1.096 3.995 2.212 3.995 4.726 0 2.707-2.127 4.189-4.983 4.189-2.792 0-4.597-1.332-5.477-3.072z"/>
    </symbol>
    <symbol id="icon-company-logo" viewBox="0 0 73 32">
  <path d="M12.776 2.986c0.323 0.16 0.686 0.621 0.929 0.893 2.090 2.335 3.187 5.309 2.993 8.44-0.188 3.030-1.684 5.72-3.93 7.708-0.425-0.291-0.814-0.704-1.155-1.089-1.908-2.157-2.953-5.189-2.771-8.065 0.188-2.965 1.704-5.932 3.933-7.887z"></path>
  <path d="M21.672 7.226c0.006 0.011 0.013 0.021 0.019 0.032 0.119 0.242 0.153 0.627 0.184 0.896 0.157 1.398 0.027 2.8-0.465 4.124-1.229 3.308-4.069 5.742-7.209 7.186-0.037-0-0.012 0.003-0.069-0.030 0.192-0.314 0.46-0.595 0.681-0.889 0.339-0.46 0.645-0.943 0.918-1.445 0.962-1.77 1.422-3.716 1.42-5.724-0-0.57-0.013-1.14-0.178-1.69 0.294-0.327 0.655-0.602 1.006-0.867 1.129-0.854 2.266-1.449 3.693-1.591z"></path>
  <path d="M3.84 7.24c0.169 0.007 0.34 0.029 0.508 0.054 1.29 0.196 2.418 0.883 3.426 1.678 0.281 0.222 0.589 0.453 0.801 0.745-0.536 2.752 0.175 5.639 1.598 8.019 0.227 0.378 0.473 0.745 0.736 1.1 0.126 0.169 0.275 0.322 0.388 0.5l-0.040 0.052c-2.347-1.003-4.545-2.779-5.959-4.902-1.484-2.227-1.974-4.626-1.457-7.245z"></path>
  <path d="M23.968 13.382c0.374-0.045 1.213-0.092 1.526 0.108 0.016 0.047 0.021 0.052 0.022 0.109 0.006 0.22-0.137 0.548-0.212 0.753-0.498 1.413-1.35 2.675-2.475 3.665-2.202 1.947-5.056 2.645-7.938 2.46-0.544-0.057-1.106-0.095-1.629-0.262 2.415-0.743 4.712-2.26 6.377-4.155 0.409-0.466 0.709-1.007 1.107-1.475 0.756-0.889 2.126-1.124 3.221-1.202z"></path>
  <path d="M0.897 13.456c1.125-0.133 2.652 0.053 3.58 0.753 0.551 0.417 0.883 1.19 1.339 1.717 1.424 1.649 3.208 2.95 5.215 3.802 0.427 0.183 0.867 0.374 1.319 0.485l-0.903 0.151c-2.629 0.378-5.354-0.091-7.604-1.554-1.532-0.996-2.611-2.363-3.245-4.067-0.093-0.25-0.232-0.521-0.28-0.782-0.028-0.152-0.003-0.252 0.086-0.381 0.141-0.104 0.325-0.103 0.495-0.123z"></path>
  <path d="M46.817 11.184c0.876-0.007 1.832-0.086 2.698 0.040 0.557 0.081 1.122 0.28 1.461 0.758 0.249 0.352 0.33 0.845 0.253 1.265-0.094 0.514-0.42 0.811-0.833 1.088 0.099 0.042 0.197 0.087 0.291 0.138 0.364 0.197 0.622 0.539 0.729 0.938 0.146 0.545 0.029 1.105-0.242 1.589-0.061 0.093-0.133 0.175-0.214 0.251-0.832 0.789-2.655 0.636-3.73 0.626-0.207-0.002-0.479 0.017-0.633-0.14-0.037-0.079-0.052-0.131-0.057-0.22-0.071-1.154-0.006-2.352-0.007-3.51-0-0.82-0.083-1.888 0.024-2.681 0.083-0.103 0.135-0.103 0.259-0.141zM49.753 15.243c-0.464-0.303-1.246-0.215-1.785-0.214l0.002 1.496c0.597 0.004 1.295 0.096 1.824-0.224 0.125-0.184 0.25-0.457 0.214-0.686-0.026-0.166-0.117-0.281-0.255-0.372zM49.531 12.583c-0.443-0.266-1.064-0.199-1.562-0.196v1.436c0.534 0.004 1.172 0.083 1.639-0.219 0.126-0.18 0.247-0.438 0.199-0.665-0.035-0.166-0.133-0.271-0.275-0.356z"></path>
  <path d="M38.646 12.738c0.134-0.011 0.268-0.004 0.399 0.021 0.401 0.080 0.596 0.375 0.811 0.69 0.012-0.11 0.021-0.229 0.046-0.336 0.027-0.112 0.088-0.181 0.188-0.235 0.162-0.086 0.51-0.092 0.679-0.029 0.124 0.046 0.261 0.153 0.304 0.283 0.126 0.383 0.077 4.133 0.004 4.645-0.048 0.338-0.153 0.671-0.323 0.967-0.275 0.478-0.742 0.789-1.268 0.932-0.741 0.2-1.583 0.136-2.244-0.262-0.295-0.177-0.433-0.406-0.511-0.735 0.025-0.119 0.054-0.235 0.156-0.312 0.331-0.25 1.046 0.17 1.414 0.238 0.316 0.059 0.658 0.027 0.921-0.172 0.434-0.327 0.505-0.931 0.579-1.43-0.29 0.31-0.566 0.56-0.994 0.665-0.464 0.114-0.972 0.036-1.371-0.229-0.525-0.348-0.818-0.945-0.926-1.551-0.131-0.738-0.017-1.621 0.431-2.239 0.427-0.589 1.014-0.806 1.704-0.911zM38.725 13.868c-0.345 0.13-0.536 0.29-0.684 0.634-0.182 0.423-0.188 1.036-0.009 1.46 0.094 0.224 0.283 0.46 0.52 0.54 0.157 0.053 0.346 0.030 0.508 0.019 0.284-0.102 0.446-0.221 0.581-0.497 0.208-0.424 0.214-1.022 0.056-1.465-0.092-0.257-0.274-0.51-0.531-0.622-0.132-0.057-0.298-0.076-0.44-0.068z"></path>
  <path d="M67.333 12.778c0.339-0.045 0.673-0.030 0.993 0.103 0.442 0.183 0.672 0.517 0.847 0.943 0.090-0.225 0.189-0.452 0.348-0.638 0.251-0.296 0.58-0.413 0.961-0.428 0.439-0.017 0.888 0.084 1.21 0.399 0.211 0.207 0.341 0.485 0.412 0.769 0.188 0.758 0.083 2.385 0.086 3.241 0 0.131 0.017 0.545-0.086 0.623-0.174 0.131-0.792 0.102-1.009 0.072-0.127-0.018-0.205-0.086-0.257-0.201-0.081-0.177-0.038-0.493-0.035-0.689 0.008-0.635 0.165-2.39-0.211-2.853-0.086-0.106-0.209-0.173-0.346-0.182-0.202-0.014-0.46 0.056-0.607 0.2-0.521 0.51-0.348 2.324-0.344 3.038 0.001 0.144 0.006 0.302-0.011 0.444-0.008 0.063-0.030 0.136-0.088 0.169-0.222 0.127-0.762 0.108-1.007 0.051-0.128-0.030-0.182-0.073-0.228-0.197-0.075-0.205-0.033-0.509-0.029-0.726 0.011-0.636 0.162-2.218-0.161-2.695-0.097-0.143-0.242-0.23-0.412-0.258-0.193-0.032-0.395-0.006-0.552 0.118-0.633 0.5-0.46 2.251-0.457 2.975 0.001 0.174 0.036 0.423-0.004 0.586-0.016 0.068-0.036 0.109-0.094 0.147-0.204 0.134-0.755 0.105-0.999 0.057-0.102-0.020-0.168-0.083-0.212-0.176-0.062-0.132-0.081-3.938-0.058-4.315 0.006-0.105 0.028-0.217 0.076-0.312 0.062-0.121 0.166-0.2 0.293-0.241 0.301-0.097 0.677 0.010 0.943 0.158 0.064 0.238 0.018 0.549 0.008 0.797 0.031-0.063 0.063-0.126 0.095-0.189 0.235-0.454 0.456-0.639 0.936-0.792z"></path>
  <path d="M61.856 12.797c1.402-0.029 2.567 1.075 2.613 2.476s-1.043 2.579-2.443 2.643c-0.921 0.042-1.795-0.415-2.285-1.196s-0.523-1.766-0.085-2.578c0.438-0.812 1.279-1.326 2.201-1.345zM61.684 13.911c-0.377 0.167-0.581 0.359-0.727 0.753-0.174 0.47-0.146 1.128 0.077 1.577 0.121 0.242 0.308 0.439 0.568 0.525 0.178 0.060 0.345 0.069 0.527 0.026 0.361-0.151 0.577-0.344 0.725-0.714 0.186-0.464 0.184-1.084-0.030-1.538-0.134-0.284-0.371-0.519-0.676-0.609-0.149-0.044-0.311-0.034-0.464-0.020z"></path>
  <path d="M33.474 12.805c1.411-0.064 2.606 1.027 2.672 2.438s-1.023 2.609-2.433 2.677c-1.413 0.068-2.614-1.024-2.68-2.438s1.027-2.613 2.441-2.677zM33.873 13.945c-0.163-0.056-0.332-0.055-0.501-0.034-0.378 0.187-0.594 0.382-0.738 0.795-0.163 0.468-0.139 1.135 0.096 1.574 0.128 0.239 0.322 0.415 0.584 0.495 0.161 0.049 0.343 0.054 0.507 0.014 0.36-0.15 0.571-0.343 0.716-0.713 0.184-0.468 0.169-1.086-0.044-1.544-0.125-0.269-0.337-0.491-0.621-0.588z"></path>
  <path d="M56.119 12.833c0.909-0.147 1.825 0.206 2.402 0.923s0.723 1.689 0.384 2.545c-0.34 0.855-1.112 1.463-2.024 1.59-1.388 0.194-2.674-0.766-2.883-2.152s0.737-2.682 2.121-2.906zM56.328 13.909c-0.379 0.161-0.597 0.345-0.751 0.737-0.18 0.461-0.162 1.098 0.051 1.546 0.129 0.27 0.347 0.492 0.636 0.584 0.145 0.046 0.309 0.046 0.458 0.027 0.378-0.16 0.598-0.338 0.755-0.731 0.182-0.457 0.179-1.087-0.033-1.533-0.126-0.265-0.34-0.488-0.621-0.588-0.158-0.056-0.33-0.055-0.495-0.041z"></path>
  <path d="M43.332 12.78c0.32-0.038 0.629-0.032 0.944 0.041 0.479 0.111 0.881 0.39 1.125 0.819 0.131 0.23 0.206 0.483 0.242 0.744 0.056 0.404 0.088 2.957-0.004 3.308-0.077 0.098-0.154 0.134-0.275 0.16-0.205 0.043-0.654 0.070-0.819-0.084-0.145-0.134-0.115-0.413-0.117-0.593-0.24 0.355-0.482 0.641-0.918 0.75-0.488 0.121-0.94-0.021-1.36-0.264-0.179-0.165-0.315-0.334-0.392-0.568-0.13-0.395-0.088-0.927 0.114-1.291 0.49-0.882 1.645-0.829 2.489-1.078l0.052-0.016c-0.034-0.105-0.067-0.213-0.111-0.315-0.478-1.102-1.669 0.102-2.245-0.201-0.116-0.061-0.2-0.185-0.23-0.311-0.039-0.168 0.006-0.276 0.097-0.415 0.309-0.472 0.889-0.591 1.405-0.689zM44.358 15.723c-0.351 0.097-1.009 0.203-1.219 0.521-0.068 0.104-0.074 0.24-0.030 0.355 0.031 0.081 0.092 0.151 0.146 0.218 0.363 0.024 0.59-0.002 0.867-0.254 0.168-0.153 0.322-0.4 0.314-0.637-0.002-0.059-0.019-0.119-0.032-0.176l-0.047-0.027z"></path>
  <path d="M29.015 13.728c0.126-0.399 1.104-2.311 1.416-2.49 0.162-0.093 1.026-0.107 1.2-0.028 0.111 0.051 0.123 0.081 0.174 0.185-0.089 0.495-1.182 2.155-1.506 2.697l-0.568 0.945c0.002 0.568 0.102 2.301-0.096 2.712-0.070 0.053-0.119 0.083-0.206 0.103-0.267 0.062-0.797 0.044-1.033-0.104-0.182-0.24-0.087-2.23-0.087-2.67-0.29-0.464-2.165-3.457-2.115-3.743 0.062-0.089 0.102-0.111 0.202-0.151 0.316-0.009 0.959-0.093 1.221 0.066 0.339 0.206 1.271 2.058 1.397 2.478z"></path>
  <path d="M52.226 11.184c0.332-0.009 0.874-0.092 1.16 0.080 0.080 0.546 0.049 1.124 0.050 1.675l0.003 2.551c0 0.666 0.073 1.468-0.013 2.122-0.017 0.13-0.097 0.173-0.192 0.247-0.346 0.011-0.877 0.097-1.161-0.128-0.067-0.255-0.109-6.145-0.045-6.378 0.031-0.11 0.103-0.123 0.196-0.17z"></path>
  <path d="M12.912 20.391c0.457 0.163 0.918 0.293 1.398 0.371 0.827 0.134 1.787 0.095 2.53 0.525 0.549 0.318 1.11 1.063 1.265 1.681 0.028 0.113 0.020 0.123-0.038 0.217-0.574 0.207-1.132 0.158-1.703-0.029-1.376-0.45-2.778-1.453-3.452-2.764z"></path>
  <path d="M12.653 20.394c0.029-0.003 0.057 0.013 0.085 0.021-0.001 0.013-0.001 0.027-0.004 0.040-0.071 0.293-1.203 1.487-1.465 1.694-0.904 0.714-2.246 1.28-3.412 1.141-0.031-0.007-0.074-0.015-0.103-0.028-0.063-0.029-0.103-0.052-0.119-0.12-0.044-0.182 0.059-0.394 0.142-0.552 0.267-0.511 0.685-1.11 1.209-1.386 0.646-0.34 1.6-0.338 2.317-0.466 0.46-0.082 0.903-0.206 1.349-0.343z"></path>
</symbol>
<symbol id="icon-Check" viewBox="0 0 32 32">
  <path d="M26.472 10.44l-13.568 13.568c-0.12 0.121-0.284 0.189-0.454 0.189s-0.334-0.068-0.454-0.189l-6.899-6.899c-0.121-0.12-0.189-0.284-0.189-0.454s0.068-0.334 0.189-0.454l0.896-0.896c0.12-0.121 0.284-0.189 0.454-0.189s0.334 0.068 0.454 0.189l5.542 5.542 12.224-12.224c0.253-0.245 0.656-0.245 0.909 0l0.896 0.909c0.121 0.12 0.189 0.284 0.189 0.454s-0.068 0.334-0.189 0.454z"></path>
</symbol>
<symbol id="icon-Facebook" viewBox="0 0 32 32">
  <path d="M28.8 16.507c0-7.113-5.731-12.878-12.8-12.878s-12.8 5.766-12.8 12.878c0 6.428 4.681 11.756 10.8 12.722v-8.999h-3.25v-3.723h3.25v-2.837c0-3.228 1.911-5.010 4.835-5.010 1.401 0 2.865 0.252 2.865 0.252v3.169h-1.614c-1.59 0-2.086 0.993-2.086 2.011v2.416h3.55l-0.567 3.723h-2.983v8.999c6.119-0.966 10.8-6.294 10.8-12.722z"></path>
</symbol>
<symbol id="icon-close" viewBox="0 0 32 32">
  <path d="M22.835 22.364l-0.471 0.471c-0.26 0.26-0.682 0.26-0.943 0l-5.421-5.421-5.421 5.421c-0.26 0.26-0.682 0.26-0.943 0l-0.471-0.471c-0.26-0.26-0.26-0.682 0-0.943l5.421-5.421-5.421-5.421c-0.26-0.26-0.26-0.682 0-0.943l0.471-0.471c0.26-0.26 0.682-0.26 0.943 0l5.421 5.421 5.421-5.421c0.26-0.26 0.683-0.26 0.943 0l0.471 0.471c0.26 0.26 0.26 0.682 0 0.943l-5.421 5.421 5.421 5.421c0.26 0.26 0.26 0.683 0 0.943z"></path>
</symbol>
<symbol id="icon-menu" viewBox="0 0 32 32">
  <path d="M5.333 8h21.333v2.667h-21.333v-2.667zM5.333 14.667h21.333v2.667h-21.333v-2.667zM5.333 21.333h21.333v2.667h-21.333v-2.667z"></path>
</symbol>
<symbol id="icon-Youtube" viewBox="0 0 32 32">
  <path d="M28.279 9.978c-0.146-0.541-0.431-1.034-0.826-1.431s-0.888-0.683-1.429-0.83c-2.004-0.55-10.024-0.559-10.024-0.559s-8.018-0.009-10.024 0.517c-0.54 0.154-1.032 0.444-1.428 0.842s-0.683 0.892-0.833 1.433c-0.529 2.004-0.534 6.162-0.534 6.162s-0.005 4.178 0.52 6.162c0.294 1.097 1.158 1.964 2.257 2.259 2.025 0.55 10.022 0.559 10.022 0.559s8.019 0.009 10.024-0.516c0.541-0.147 1.034-0.432 1.431-0.828s0.683-0.888 0.831-1.429c0.53-2.003 0.534-6.159 0.534-6.159s0.026-4.179-0.521-6.184zM13.435 19.965l0.006-7.68 6.665 3.846-6.671 3.834z"></path>
</symbol>
<symbol id="icon-instagram" viewBox="0 0 32 32">
  <path d="M31.969 9.408c-0.075-1.7-0.35-2.869-0.744-3.882-0.406-1.075-1.031-2.038-1.85-2.838-0.8-0.813-1.769-1.444-2.832-1.844-1.019-0.394-2.182-0.669-3.882-0.744-1.713-0.081-2.257-0.1-6.601-0.1s-4.888 0.019-6.595 0.094c-1.7 0.075-2.869 0.35-3.882 0.744-1.075 0.406-2.038 1.031-2.838 1.85-0.813 0.8-1.444 1.769-1.844 2.832-0.394 1.019-0.669 2.182-0.744 3.882-0.081 1.713-0.1 2.257-0.1 6.601s0.019 4.888 0.094 6.595c0.075 1.7 0.35 2.869 0.744 3.882 0.406 1.075 1.038 2.038 1.85 2.838 0.8 0.813 1.769 1.444 2.832 1.844 1.019 0.394 2.182 0.669 3.882 0.744 1.706 0.075 2.25 0.094 6.595 0.094s4.888-0.019 6.595-0.094c1.7-0.075 2.869-0.35 3.882-0.744 2.151-0.831 3.851-2.532 4.682-4.682 0.394-1.019 0.669-2.182 0.744-3.882 0.075-1.707 0.094-2.25 0.094-6.595s-0.006-4.888-0.081-6.595zM29.087 22.473c-0.069 1.563-0.331 2.407-0.55 2.969-0.538 1.394-1.644 2.5-3.038 3.038-0.563 0.219-1.413 0.481-2.969 0.55-1.688 0.075-2.194 0.094-6.464 0.094s-4.782-0.019-6.464-0.094c-1.563-0.069-2.407-0.331-2.969-0.55-0.694-0.256-1.325-0.663-1.838-1.194-0.531-0.519-0.938-1.144-1.194-1.838-0.219-0.563-0.481-1.413-0.55-2.969-0.075-1.688-0.094-2.194-0.094-6.464s0.019-4.782 0.094-6.464c0.069-1.563 0.331-2.407 0.55-2.969 0.256-0.694 0.663-1.325 1.2-1.838 0.519-0.531 1.144-0.938 1.838-1.194 0.563-0.219 1.413-0.481 2.969-0.55 1.688-0.075 2.194-0.094 6.464-0.094 4.276 0 4.782 0.019 6.464 0.094 1.563 0.069 2.407 0.331 2.969 0.55 0.694 0.256 1.325 0.662 1.838 1.194 0.531 0.519 0.938 1.144 1.194 1.838 0.219 0.563 0.481 1.413 0.55 2.969 0.075 1.688 0.094 2.194 0.094 6.464s-0.019 4.77-0.094 6.458z"></path>
  <path d="M16.059 7.783c-4.538 0-8.22 3.682-8.22 8.22s3.682 8.22 8.22 8.22c4.538 0 8.22-3.682 8.22-8.22s-3.682-8.22-8.22-8.22zM16.059 21.335c-2.944 0-5.332-2.388-5.332-5.332s2.388-5.332 5.332-5.332c2.944 0 5.332 2.388 5.332 5.332s-2.388 5.332-5.332 5.332z"></path>
  <path d="M26.524 7.458c0 1.060-0.859 1.919-1.919 1.919s-1.919-0.859-1.919-1.919c0-1.060 0.859-1.919 1.919-1.919s1.919 0.859 1.919 1.919z"></path>
</symbol>
<symbol id="icon-linkedin" viewBox="0 0 32 32">
  <path d="M29 0h-26c-1.65 0-3 1.35-3 3v26c0 1.65 1.35 3 3 3h26c1.65 0 3-1.35 3-3v-26c0-1.65-1.35-3-3-3zM12 26h-4v-14h4v14zM10 10c-1.106 0-2-0.894-2-2s0.894-2 2-2c1.106 0 2 0.894 2 2s-0.894 2-2 2zM26 26h-4v-8c0-1.106-0.894-2-2-2s-2 0.894-2 2v8h-4v-14h4v2.481c0.825-1.131 2.087-2.481 3.5-2.481 2.488 0 4.5 2.238 4.5 5v9z"></path>
</symbol>

        <symbol id="logo" viewBox="0 0 107 32">
            <path fill="#ff6b0a" style="fill:var(--color1, #ff6b0a)" d="M106.667 0v32H59.536V0h47.131zM74.42 8.811v13.927l.001.044a.842.842 0 0 1-.001.087c-.007.08.015.128.107.115a.485.485 0 0 1 .066-.001l.033.001h3.582c.075.001.112.001.129-.017s.016-.051.014-.116l-.001-.078V8.83l-.001-.033a.485.485 0 0 1 .001-.066c.008-.082-.02-.125-.109-.115-.018.002-.036.001-.054.001l-.028-.001h-3.55l-.062-.001c-.065-.001-.098-.001-.114.015s-.016.049-.015.116l.001.064zm19.579-.194h-5.863c-1.954 0-3.908 0-5.86-.002h-.133c-.066-.003-.089.028-.084.089a.486.486 0 0 1 0 .054v3.398c0 .072-.001.107.017.124s.051.017.118.016H85.923c.12 0 .18 0 .209.03s.029.087.029.2v10.335c-.001.059-.001.09.014.106.017.018.052.017.127.017h3.571c.111 0 .166 0 .193-.028s.027-.08.027-.186V12.488l-.001-.059c-.001-.063-.001-.097.015-.114.018-.019.055-.018.133-.018h3.798c.162 0 .162 0 .164-.159V8.759c.001-.072.001-.108-.016-.126s-.053-.017-.123-.016L94 8.618z"/>
            <path fill="#010101" style="fill:var(--color2, #010101)" d="m47.132 0 12.403 16-12.403 16H0V0h47.132zm-26.38 13.662.215.174a.371.371 0 0 0 .106-.107.256.256 0 0 1 .02-.026c.254-.302.507-.606.76-.91.507-.606 1.012-1.212 1.518-1.82.101-.122.097-.177-.018-.276a12.617 12.617 0 0 0-.277-.233c-.803-.657-1.685-1.17-2.684-1.467a9.43 9.43 0 0 0-2.043-.353c-.905-.061-1.802-.031-2.691.174-3.112.716-5.434 3.292-5.707 6.594a7.795 7.795 0 0 0 .225 2.638c.519 1.96 1.645 3.461 3.434 4.45.975.539 2.03.823 3.14.912.94.076 1.87.018 2.788-.189 1.553-.35 2.925-1.056 4.146-2.067a.333.333 0 0 0 .137-.289c-.004-1.572-.004-3.145-.003-4.717v-1.179a.66.66 0 0 0-.003-.062c-.003-.046-.006-.092.006-.134.015-.049-.012-.077-.037-.104-.021-.022-.042-.044-.039-.077.007-.054-.03-.062-.073-.062h-6.556l-.038.001c-.026.001-.052.002-.077-.001-.066-.007-.087.026-.083.087a.657.657 0 0 1 .001.077l-.001.038V17.839l-.001.074c-.001.063-.002.096.014.112s.052.017.125.016H19.772c.072-.001.107-.001.124.016.016.016.015.048.014.11l-.001.078v.679c0 .308 0 .311-.279.445-.818.391-1.681.503-2.573.391-.991-.123-1.784-.591-2.365-1.401-.378-.527-.585-1.122-.662-1.763-.097-.818.002-1.605.373-2.348.448-.892 1.125-1.533 2.098-1.827.682-.207 1.373-.153 2.056-.003.619.135 1.159.437 1.657.816.182.138.359.281.539.427zm18.346-2.98c-1.528-1.39-3.348-2.052-5.229-2.066-.869.002-1.518.072-2.207.251-1.998.521-3.563 1.638-4.602 3.422-1.067 1.83-1.283 3.793-.687 5.812.667 2.257 2.089 3.9 4.29 4.815 1.69.701 3.44.795 5.206.332 2.051-.537 3.624-1.725 4.654-3.578.869-1.562 1.102-3.238.778-4.987-.291-1.572-1.017-2.919-2.203-4zm-8.437 3.528c.666-1.227 1.729-1.815 2.762-1.838 2.094-.005 3.464 1.173 3.837 2.806.226.984.125 1.94-.358 2.834-.57 1.05-1.458 1.661-2.654 1.797-1.156.133-2.165-.194-2.99-1.025a3.579 3.579 0 0 1-.983-1.914c-.172-.928-.066-1.827.386-2.66z"/>
        </symbol>
        <symbol id="javascript" viewBox="0 0 32 32">
            <path fill="#f7df1e" style="fill:var(--color3, #f7df1e)" d="M0 0h32v32H0V0z"/>
            <path style="fill:var(--color4, #000)" d="m8.414 26.741 2.449-1.482c.473.838.902 1.546 1.933 1.546.988 0 1.611-.387 1.611-1.89V14.69h3.007v10.267c0 3.115-1.826 4.532-4.489 4.532-2.406 0-3.802-1.246-4.511-2.75zm10.634-.322 2.448-1.418c.645 1.053 1.482 1.826 2.964 1.826 1.246 0 2.041-.623 2.041-1.482 0-1.031-.816-1.396-2.191-1.997l-.752-.323c-2.17-.923-3.609-2.083-3.609-4.532 0-2.256 1.718-3.974 4.404-3.974 1.912 0 3.287.666 4.274 2.406l-2.341 1.504c-.516-.924-1.074-1.289-1.933-1.289-.881 0-1.439.558-1.439 1.289 0 .902.558 1.268 1.847 1.826l.752.322c2.556 1.096 3.995 2.212 3.995 4.726 0 2.707-2.127 4.189-4.983 4.189-2.792 0-4.597-1.332-5.477-3.072z"/>
        </symbol>
        <symbol id="icon-click" viewBox="0 0 40 32">
            <path d="M34 1a4 4 0 0 1 6 3l-1 2-20 25a4 4 0 0 1-5 0L1 18a4 4 0 0 1 0-5 4 4 0 0 1 5 0l11 10L34 1z" style="fill:var(--color1, #F4F4FD)"/>
        </symbol>
        <symbol id="icon-company-logo" viewBox="0 0 73 32">
            <path d="M12.776 2.986c0.323 0.16 0.686 0.621 0.929 0.893 2.090 2.335 3.187 5.309 2.993 8.44-0.188 3.030-1.684 5.72-3.93 7.708-0.425-0.291-0.814-0.704-1.155-1.089-1.908-2.157-2.953-5.189-2.771-8.065 0.188-2.965 1.704-5.932 3.933-7.887z"></path>
            <path d="M21.672 7.226c0.006 0.011 0.013 0.021 0.019 0.032 0.119 0.242 0.153 0.627 0.184 0.896 0.157 1.398 0.027 2.8-0.465 4.124-1.229 3.308-4.069 5.742-7.209 7.186-0.037-0-0.012 0.003-0.069-0.030 0.192-0.314 0.46-0.595 0.681-0.889 0.339-0.46 0.645-0.943 0.918-1.445 0.962-1.77 1.422-3.716 1.42-5.724-0-0.57-0.013-1.14-0.178-1.69 0.294-0.327 0.655-0.602 1.006-0.867 1.129-0.854 2.266-1.449 3.693-1.591z"></path>
            <path d="M3.84 7.24c0.169 0.007 0.34 0.029 0.508 0.054 1.29 0.196 2.418 0.883 3.426 1.678 0.281 0.222 0.589 0.453 0.801 0.745-0.536 2.752 0.175 5.639 1.598 8.019 0.227 0.378 0.473 0.745 0.736 1.1 0.126 0.169 0.275 0.322 0.388 0.5l-0.040 0.052c-2.347-1.003-4.545-2.779-5.959-4.902-1.484-2.227-1.974-4.626-1.457-7.245z"></path>
            <path d="M23.968 13.382c0.374-0.045 1.213-0.092 1.526 0.108 0.016 0.047 0.021 0.052 0.022 0.109 0.006 0.22-0.137 0.548-0.212 0.753-0.498 1.413-1.35 2.675-2.475 3.665-2.202 1.947-5.056 2.645-7.938 2.46-0.544-0.057-1.106-0.095-1.629-0.262 2.415-0.743 4.712-2.26 6.377-4.155 0.409-0.466 0.709-1.007 1.107-1.475 0.756-0.889 2.126-1.124 3.221-1.202z"></path>
            <path d="M0.897 13.456c1.125-0.133 2.652 0.053 3.58 0.753 0.551 0.417 0.883 1.19 1.339 1.717 1.424 1.649 3.208 2.95 5.215 3.802 0.427 0.183 0.867 0.374 1.319 0.485l-0.903 0.151c-2.629 0.378-5.354-0.091-7.604-1.554-1.532-0.996-2.611-2.363-3.245-4.067-0.093-0.25-0.232-0.521-0.28-0.782-0.028-0.152-0.003-0.252 0.086-0.381 0.141-0.104 0.325-0.103 0.495-0.123z"></path>
            <path d="M46.817 11.184c0.876-0.007 1.832-0.086 2.698 0.040 0.557 0.081 1.122 0.28 1.461 0.758 0.249 0.352 0.33 0.845 0.253 1.265-0.094 0.514-0.42 0.811-0.833 1.088 0.099 0.042 0.197 0.087 0.291 0.138 0.364 0.197 0.622 0.539 0.729 0.938 0.146 0.545 0.029 1.105-0.242 1.589-0.061 0.093-0.133 0.175-0.214 0.251-0.832 0.789-2.655 0.636-3.73 0.626-0.207-0.002-0.479 0.017-0.633-0.14-0.037-0.079-0.052-0.131-0.057-0.22-0.071-1.154-0.006-2.352-0.007-3.51-0-0.82-0.083-1.888 0.024-2.681 0.083-0.103 0.135-0.103 0.259-0.141zM49.753 15.243c-0.464-0.303-1.246-0.215-1.785-0.214l0.002 1.496c0.597 0.004 1.295 0.096 1.824-0.224 0.125-0.184 0.25-0.457 0.214-0.686-0.026-0.166-0.117-0.281-0.255-0.372zM49.531 12.583c-0.443-0.266-1.064-0.199-1.562-0.196v1.436c0.534 0.004 1.172 0.083 1.639-0.219 0.126-0.18 0.247-0.438 0.199-0.665-0.035-0.166-0.133-0.271-0.275-0.356z"></path>
            <path d="M38.646 12.738c0.134-0.011 0.268-0.004 0.399 0.021 0.401 0.080 0.596 0.375 0.811 0.69 0.012-0.11 0.021-0.229 0.046-0.336 0.027-0.112 0.088-0.181 0.188-0.235 0.162-0.086 0.51-0.092 0.679-0.029 0.124 0.046 0.261 0.153 0.304 0.283 0.126 0.383 0.077 4.133 0.004 4.645-0.048 0.338-0.153 0.671-0.323 0.967-0.275 0.478-0.742 0.789-1.268 0.932-0.741 0.2-1.583 0.136-2.244-0.262-0.295-0.177-0.433-0.406-0.511-0.735 0.025-0.119 0.054-0.235 0.156-0.312 0.331-0.25 1.046 0.17 1.414 0.238 0.316 0.059 0.658 0.027 0.921-0.172 0.434-0.327 0.505-0.931 0.579-1.43-0.29 0.31-0.566 0.56-0.994 0.665-0.464 0.114-0.972 0.036-1.371-0.229-0.525-0.348-0.818-0.945-0.926-1.551-0.131-0.738-0.017-1.621 0.431-2.239 0.427-0.589 1.014-0.806 1.704-0.911zM38.725 13.868c-0.345 0.13-0.536 0.29-0.684 0.634-0.182 0.423-0.188 1.036-0.009 1.46 0.094 0.224 0.283 0.46 0.52 0.54 0.157 0.053 0.346 0.030 0.508 0.019 0.284-0.102 0.446-0.221 0.581-0.497 0.208-0.424 0.214-1.022 0.056-1.465-0.092-0.257-0.274-0.51-0.531-0.622-0.132-0.057-0.298-0.076-0.44-0.068z"></path>
            <path d="M67.333 12.778c0.339-0.045 0.673-0.030 0.993 0.103 0.442 0.183 0.672 0.517 0.847 0.943 0.090-0.225 0.189-0.452 0.348-0.638 0.251-0.296 0.58-0.413 0.961-0.428 0.439-0.017 0.888 0.084 1.21 0.399 0.211 0.207 0.341 0.485 0.412 0.769 0.188 0.758 0.083 2.385 0.086 3.241 0 0.131 0.017 0.545-0.086 0.623-0.174 0.131-0.792 0.102-1.009 0.072-0.127-0.018-0.205-0.086-0.257-0.201-0.081-0.177-0.038-0.493-0.035-0.689 0.008-0.635 0.165-2.39-0.211-2.853-0.086-0.106-0.209-0.173-0.346-0.182-0.202-0.014-0.46 0.056-0.607 0.2-0.521 0.51-0.348 2.324-0.344 3.038 0.001 0.144 0.006 0.302-0.011 0.444-0.008 0.063-0.030 0.136-0.088 0.169-0.222 0.127-0.762 0.108-1.007 0.051-0.128-0.030-0.182-0.073-0.228-0.197-0.075-0.205-0.033-0.509-0.029-0.726 0.011-0.636 0.162-2.218-0.161-2.695-0.097-0.143-0.242-0.23-0.412-0.258-0.193-0.032-0.395-0.006-0.552 0.118-0.633 0.5-0.46 2.251-0.457 2.975 0.001 0.174 0.036 0.423-0.004 0.586-0.016 0.068-0.036 0.109-0.094 0.147-0.204 0.134-0.755 0.105-0.999 0.057-0.102-0.020-0.168-0.083-0.212-0.176-0.062-0.132-0.081-3.938-0.058-4.315 0.006-0.105 0.028-0.217 0.076-0.312 0.062-0.121 0.166-0.2 0.293-0.241 0.301-0.097 0.677 0.010 0.943 0.158 0.064 0.238 0.018 0.549 0.008 0.797 0.031-0.063 0.063-0.126 0.095-0.189 0.235-0.454 0.456-0.639 0.936-0.792z"></path>
            <path d="M61.856 12.797c1.402-0.029 2.567 1.075 2.613 2.476s-1.043 2.579-2.443 2.643c-0.921 0.042-1.795-0.415-2.285-1.196s-0.523-1.766-0.085-2.578c0.438-0.812 1.279-1.326 2.201-1.345zM61.684 13.911c-0.377 0.167-0.581 0.359-0.727 0.753-0.174 0.47-0.146 1.128 0.077 1.577 0.121 0.242 0.308 0.439 0.568 0.525 0.178 0.060 0.345 0.069 0.527 0.026 0.361-0.151 0.577-0.344 0.725-0.714 0.186-0.464 0.184-1.084-0.030-1.538-0.134-0.284-0.371-0.519-0.676-0.609-0.149-0.044-0.311-0.034-0.464-0.020z"></path>
            <path d="M33.474 12.805c1.411-0.064 2.606 1.027 2.672 2.438s-1.023 2.609-2.433 2.677c-1.413 0.068-2.614-1.024-2.68-2.438s1.027-2.613 2.441-2.677zM33.873 13.945c-0.163-0.056-0.332-0.055-0.501-0.034-0.378 0.187-0.594 0.382-0.738 0.795-0.163 0.468-0.139 1.135 0.096 1.574 0.128 0.239 0.322 0.415 0.584 0.495 0.161 0.049 0.343 0.054 0.507 0.014 0.36-0.15 0.571-0.343 0.716-0.713 0.184-0.468 0.169-1.086-0.044-1.544-0.125-0.269-0.337-0.491-0.621-0.588z"></path>
            <path d="M56.119 12.833c0.909-0.147 1.825 0.206 2.402 0.923s0.723 1.689 0.384 2.545c-0.34 0.855-1.112 1.463-2.024 1.59-1.388 0.194-2.674-0.766-2.883-2.152s0.737-2.682 2.121-2.906zM56.328 13.909c-0.379 0.161-0.597 0.345-0.751 0.737-0.18 0.461-0.162 1.098 0.051 1.546 0.129 0.27 0.347 0.492 0.636 0.584 0.145 0.046 0.309 0.046 0.458 0.027 0.378-0.16 0.598-0.338 0.755-0.731 0.182-0.457 0.179-1.087-0.033-1.533-0.126-0.265-0.34-0.488-0.621-0.588-0.158-0.056-0.33-0.055-0.495-0.041z"></path>
            <path d="M43.332 12.78c0.32-0.038 0.629-0.032 0.944 0.041 0.479 0.111 0.881 0.39 1.125 0.819 0.131 0.23 0.206 0.483 0.242 0.744 0.056 0.404 0.088 2.957-0.004 3.308-0.077 0.098-0.154 0.134-0.275 0.16-0.205 0.043-0.654 0.070-0.819-0.084-0.145-0.134-0.115-0.413-0.117-0.593-0.24 0.355-0.482 0.641-0.918 0.75-0.488 0.121-0.94-0.021-1.36-0.264-0.179-0.165-0.315-0.334-0.392-0.568-0.13-0.395-0.088-0.927 0.114-1.291 0.49-0.882 1.645-0.829 2.489-1.078l0.052-0.016c-0.034-0.105-0.067-0.213-0.111-0.315-0.478-1.102-1.669 0.102-2.245-0.201-0.116-0.061-0.2-0.185-0.23-0.311-0.039-0.168 0.006-0.276 0.097-0.415 0.309-0.472 0.889-0.591 1.405-0.689zM44.358 15.723c-0.351 0.097-1.009 0.203-1.219 0.521-0.068 0.104-0.074 0.24-0.030 0.355 0.031 0.081 0.092 0.151 0.146 0.218 0.363 0.024 0.59-0.002 0.867-0.254 0.168-0.153 0.322-0.4 0.314-0.637-0.002-0.059-0.019-0.119-0.032-0.176l-0.047-0.027z"></path>
            <path d="M29.015 13.728c0.126-0.399 1.104-2.311 1.416-2.49 0.162-0.093 1.026-0.107 1.2-0.028 0.111 0.051 0.123 0.081 0.174 0.185-0.089 0.495-1.182 2.155-1.506 2.697l-0.568 0.945c0.002 0.568 0.102 2.301-0.096 2.712-0.070 0.053-0.119 0.083-0.206 0.103-0.267 0.062-0.797 0.044-1.033-0.104-0.182-0.24-0.087-2.23-0.087-2.67-0.29-0.464-2.165-3.457-2.115-3.743 0.062-0.089 0.102-0.111 0.202-0.151 0.316-0.009 0.959-0.093 1.221 0.066 0.339 0.206 1.271 2.058 1.397 2.478z"></path>
            <path d="M52.226 11.184c0.332-0.009 0.874-0.092 1.16 0.080 0.080 0.546 0.049 1.124 0.050 1.675l0.003 2.551c0 0.666 0.073 1.468-0.013 2.122-0.017 0.13-0.097 0.173-0.192 0.247-0.346 0.011-0.877 0.097-1.161-0.128-0.067-0.255-0.109-6.145-0.045-6.378 0.031-0.11 0.103-0.123 0.196-0.17z"></path>
            <path d="M12.912 20.391c0.457 0.163 0.918 0.293 1.398 0.371 0.827 0.134 1.787 0.095 2.53 0.525 0.549 0.318 1.11 1.063 1.265 1.681 0.028 0.113 0.020 0.123-0.038 0.217-0.574 0.207-1.132 0.158-1.703-0.029-1.376-0.45-2.778-1.453-3.452-2.764z"></path>
            <path d="M12.653 20.394c0.029-0.003 0.057 0.013 0.085 0.021-0.001 0.013-0.001 0.027-0.004 0.040-0.071 0.293-1.203 1.487-1.465 1.694-0.904 0.714-2.246 1.28-3.412 1.141-0.031-0.007-0.074-0.015-0.103-0.028-0.063-0.029-0.103-0.052-0.119-0.12-0.044-0.182 0.059-0.394 0.142-0.552 0.267-0.511 0.685-1.11 1.209-1.386 0.646-0.34 1.6-0.338 2.317-0.466 0.46-0.082 0.903-0.206 1.349-0.343z"></path>
        </symbol>
        <symbol id="icon-Check" viewBox="0 0 32 32">
            <path d="M26.472 10.44l-13.568 13.568c-0.12 0.121-0.284 0.189-0.454 0.189s-0.334-0.068-0.454-0.189l-6.899-6.899c-0.121-0.12-0.189-0.284-0.189-0.454s0.068-0.334 0.189-0.454l0.896-0.896c0.12-0.121 0.284-0.189 0.454-0.189s0.334 0.068 0.454 0.189l5.542 5.542 12.224-12.224c0.253-0.245 0.656-0.245 0.909 0l0.896 0.909c0.121 0.12 0.189 0.284 0.189 0.454s-0.068 0.334-0.189 0.454z"></path>
        </symbol>
        <symbol id="icon-Facebook" viewBox="0 0 32 32">
            <path d="M28.8 16.507c0-7.113-5.731-12.878-12.8-12.878s-12.8 5.766-12.8 12.878c0 6.428 4.681 11.756 10.8 12.722v-8.999h-3.25v-3.723h3.25v-2.837c0-3.228 1.911-5.010 4.835-5.010 1.401 0 2.865 0.252 2.865 0.252v3.169h-1.614c-1.59 0-2.086 0.993-2.086 2.011v2.416h3.55l-0.567 3.723h-2.983v8.999c6.119-0.966 10.8-6.294 10.8-12.722z"></path>
        </symbol>
        <symbol id="icon-close" viewBox="0 0 32 32">
            <path d="M22.835 22.364l-0.471 0.471c-0.26 0.26-0.682 0.26-0.943 0l-5.421-5.421-5.421 5.421c-0.26 0.26-0.682 0.26-0.943 0l-0.471-0.471c-0.26-0.26-0.26-0.682 0-0.943l5.421-5.421-5.421-5.421c-0.26-0.26-0.26-0.682 0-0.943l0.471-0.471c0.26-0.26 0.682-0.26 0.943 0l5.421 5.421 5.421-5.421c0.26-0.26 0.683-0.26 0.943 0l0.471 0.471c0.26 0.26 0.26 0.682 0 0.943l-5.421 5.421 5.421 5.421c0.26 0.26 0.26 0.683 0 0.943z"></path>
        </symbol>
        <symbol id="icon-menu" viewBox="0 0 32 32">
            <path d="M5.333 8h21.333v2.667h-21.333v-2.667zM5.333 14.667h21.333v2.667h-21.333v-2.667zM5.333 21.333h21.333v2.667h-21.333v-2.667z"></path>
        </symbol>
        <symbol id="icon-Youtube" viewBox="0 0 32 32">
            <path d="M28.279 9.978c-0.146-0.541-0.431-1.034-0.826-1.431s-0.888-0.683-1.429-0.83c-2.004-0.55-10.024-0.559-10.024-0.559s-8.018-0.009-10.024 0.517c-0.54 0.154-1.032 0.444-1.428 0.842s-0.683 0.892-0.833 1.433c-0.529 2.004-0.534 6.162-0.534 6.162s-0.005 4.178 0.52 6.162c0.294 1.097 1.158 1.964 2.257 2.259 2.025 0.55 10.022 0.559 10.022 0.559s8.019 0.009 10.024-0.516c0.541-0.147 1.034-0.432 1.431-0.828s0.683-0.888 0.831-1.429c0.53-2.003 0.534-6.159 0.534-6.159s0.026-4.179-0.521-6.184zM13.435 19.965l0.006-7.68 6.665 3.846-6.671 3.834z"></path>
        </symbol>
        <symbol id="icon-instagram" viewBox="0 0 32 32">
            <path d="M31.969 9.408c-0.075-1.7-0.35-2.869-0.744-3.882-0.406-1.075-1.031-2.038-1.85-2.838-0.8-0.813-1.769-1.444-2.832-1.844-1.019-0.394-2.182-0.669-3.882-0.744-1.713-0.081-2.257-0.1-6.601-0.1s-4.888 0.019-6.595 0.094c-1.7 0.075-2.869 0.35-3.882 0.744-1.075 0.406-2.038 1.031-2.838 1.85-0.813 0.8-1.444 1.769-1.844 2.832-0.394 1.019-0.669 2.182-0.744 3.882-0.081 1.713-0.1 2.257-0.1 6.601s0.019 4.888 0.094 6.595c0.075 1.7 0.35 2.869 0.744 3.882 0.406 1.075 1.038 2.038 1.85 2.838 0.8 0.813 1.769 1.444 2.832 1.844 1.019 0.394 2.182 0.669 3.882 0.744 1.706 0.075 2.25 0.094 6.595 0.094s4.888-0.019 6.595-0.094c1.7-0.075 2.869-0.35 3.882-0.744 2.151-0.831 3.851-2.532 4.682-4.682 0.394-1.019 0.669-2.182 0.744-3.882 0.075-1.707 0.094-2.25 0.094-6.595s-0.006-4.888-0.081-6.595zM29.087 22.473c-0.069 1.563-0.331 2.407-0.55 2.969-0.538 1.394-1.644 2.5-3.038 3.038-0.563 0.219-1.413 0.481-2.969 0.55-1.688 0.075-2.194 0.094-6.464 0.094s-4.782-0.019-6.464-0.094c-1.563-0.069-2.407-0.331-2.969-0.55-0.694-0.256-1.325-0.663-1.838-1.194-0.531-0.519-0.938-1.144-1.194-1.838-0.219-0.563-0.481-1.413-0.55-2.969-0.075-1.688-0.094-2.194-0.094-6.464s0.019-4.782 0.094-6.464c0.069-1.563 0.331-2.407 0.55-2.969 0.256-0.694 0.663-1.325 1.2-1.838 0.519-0.531 1.144-0.938 1.838-1.194 0.563-0.219 1.413-0.481 2.969-0.55 1.688-0.075 2.194-0.094 6.464-0.094 4.276 0 4.782 0.019 6.464 0.094 1.563 0.069 2.407 0.331 2.969 0.55 0.694 0.256 1.325 0.662 1.838 1.194 0.531 0.519 0.938 1.144 1.194 1.838 0.219 0.563 0.481 1.413 0.55 2.969 0.075 1.688 0.094 2.194 0.094 6.464s-0.019 4.77-0.094 6.458z"></path>
            <path d="M16.059 7.783c-4.538 0-8.22 3.682-8.22 8.22s3.682 8.22 8.22 8.22c4.538 0 8.22-3.682 8.22-8.22s-3.682-8.22-8.22-8.22zM16.059 21.335c-2.944 0-5.332-2.388-5.332-5.332s2.388-5.332 5.332-5.332c2.944 0 5.332 2.388 5.332 5.332s-2.388 5.332-5.332 5.332z"></path>
            <path d="M26.524 7.458c0 1.060-0.859 1.919-1.919 1.919s-1.919-0.859-1.919-1.919c0-1.060 0.859-1.919 1.919-1.919s1.919 0.859 1.919 1.919z"></path>
        </symbol>
        <symbol id="icon-linkedin" viewBox="0 0 32 32">
            <path d="M29 0h-26c-1.65 0-3 1.35-3 3v26c0 1.65 1.35 3 3 3h26c1.65 0 3-1.35 3-3v-26c0-1.65-1.35-3-3-3zM12 26h-4v-14h4v14zM10 10c-1.106 0-2-0.894-2-2s0.894-2 2-2c1.106 0 2 0.894 2 2s-0.894 2-2 2zM26 26h-4v-8c0-1.106-0.894-2-2-2s-2 0.894-2 2v8h-4v-14h4v2.481c0.825-1.131 2.087-2.481 3.5-2.481 2.488 0 4.5 2.238 4.5 5v9z"></path>
        </symbol>
        </defs>
</svg>

