<svg version="1.1" xmlns="http://www.w3.org/2000/svg" width="75" height="32" viewBox="0 0 75 32">
    <path d="M37.189 5.551c0.332 0.165 0.705 0.638 0.955 0.918 2.148 2.4 3.275 5.457 3.076 8.674-0.193 3.114-1.731 5.878-4.039 7.922-0.437-0.299-0.837-0.724-1.187-1.119-1.961-2.217-3.035-5.333-2.848-8.289 0.193-3.047 1.751-6.097 4.042-8.106z"></path>
    <path d="M46.332 9.909c0.006 0.011 0.014 0.021 0.019 0.032 0.122 0.249 0.158 0.644 0.189 0.92 0.162 1.437 0.028 2.878-0.478 4.239-1.263 3.4-4.182 5.902-7.409 7.385-0.038-0-0.013 0.003-0.071-0.031 0.197-0.323 0.472-0.611 0.7-0.914 0.348-0.473 0.663-0.97 0.944-1.485 0.989-1.819 1.461-3.82 1.46-5.883-0-0.586-0.014-1.171-0.183-1.737 0.303-0.336 0.673-0.619 1.033-0.891 1.16-0.878 2.329-1.489 3.796-1.635z"></path>
    <path d="M28.005 9.924c0.174 0.007 0.35 0.029 0.522 0.056 1.326 0.202 2.486 0.908 3.521 1.725 0.289 0.228 0.605 0.466 0.823 0.765-0.551 2.829 0.18 5.795 1.642 8.242 0.234 0.389 0.486 0.766 0.756 1.131 0.129 0.174 0.283 0.331 0.398 0.514l-0.041 0.053c-2.412-1.031-4.671-2.857-6.125-5.038-1.525-2.289-2.029-4.754-1.498-7.447z"></path>
    <path d="M48.692 16.236c0.385-0.046 1.246-0.094 1.569 0.111 0.016 0.048 0.021 0.053 0.023 0.112 0.006 0.226-0.141 0.563-0.217 0.774-0.512 1.452-1.387 2.749-2.543 3.766-2.263 2.001-5.196 2.719-8.159 2.528-0.56-0.058-1.136-0.097-1.674-0.269 2.482-0.763 4.843-2.323 6.554-4.271 0.42-0.479 0.729-1.035 1.138-1.516 0.777-0.914 2.185-1.156 3.31-1.235z"></path>
    <path d="M24.98 16.312c1.157-0.136 2.726 0.054 3.679 0.774 0.566 0.428 0.908 1.223 1.376 1.765 1.464 1.695 3.297 3.032 5.359 3.907 0.439 0.188 0.891 0.384 1.355 0.498l-0.928 0.155c-2.702 0.389-5.503-0.094-7.815-1.597-1.575-1.024-2.683-2.428-3.335-4.18-0.096-0.257-0.239-0.536-0.288-0.803-0.029-0.156-0.003-0.259 0.088-0.392 0.145-0.107 0.334-0.106 0.509-0.127z"></path>
    <path d="M37.328 23.44c0.47 0.167 0.943 0.301 1.436 0.381 0.85 0.138 1.837 0.097 2.6 0.54 0.564 0.327 1.141 1.093 1.3 1.727 0.029 0.116 0.021 0.126-0.039 0.223-0.59 0.213-1.163 0.162-1.75-0.030-1.414-0.462-2.856-1.493-3.548-2.841z"></path>
    <path d="M37.063 23.443c0.030-0.003 0.058 0.013 0.087 0.021-0.002 0.013-0.001 0.027-0.004 0.041-0.073 0.301-1.237 1.528-1.506 1.741-0.929 0.734-2.308 1.316-3.507 1.173-0.032-0.007-0.077-0.016-0.106-0.029-0.065-0.030-0.105-0.054-0.122-0.123-0.045-0.187 0.061-0.405 0.146-0.568 0.275-0.525 0.704-1.141 1.243-1.424 0.664-0.349 1.644-0.348 2.382-0.479 0.473-0.084 0.928-0.212 1.386-0.352z"></path>
</svg>