<svg width="848" height="240" viewBox="0 0 848 240" fill="none" xmlns="http://www.w3.org/2000/svg">
<g clip-path="url(#clip0_11235_741)">
<path d="M147.535 0.143677C151.338 2.03257 155.614 7.45698 158.486 10.6644C183.115 38.1781 196.035 73.2212 193.75 110.109C191.538 145.805 173.909 177.502 147.449 200.928C142.438 197.503 137.853 192.628 133.845 188.096C111.367 162.674 99.0466 126.956 101.193 93.0702C103.406 58.1334 121.265 23.1752 147.535 0.143677Z" fill="#0D0B0A"/>
<path d="M252.355 50.1053C252.427 50.2289 252.51 50.3475 252.573 50.4766C253.975 53.331 254.38 57.8599 254.736 61.0281C256.588 77.5038 255.056 94.0228 249.261 109.622C234.784 148.595 201.322 177.283 164.324 194.291C163.888 194.286 164.181 194.321 163.516 193.933C165.776 190.235 168.929 186.929 171.538 183.454C175.528 178.028 179.143 172.339 182.358 166.427C193.692 145.572 199.112 122.637 199.095 98.9846C199.09 92.267 198.936 85.5568 196.992 79.0735C200.462 75.2228 204.713 71.9772 208.84 68.8542C222.14 58.7892 235.541 51.7847 252.355 50.1053Z" fill="#0D0B0A"/>
<path d="M42.2493 50.2684C44.2459 50.3453 46.2604 50.6045 48.2352 50.9048C63.4332 53.2171 76.7309 61.3103 88.6033 70.6768C91.917 73.291 95.5423 76.0169 98.0374 79.4521C91.7248 111.883 100.097 145.889 116.867 173.937C119.545 178.395 122.438 182.719 125.536 186.899C127.016 188.89 128.776 190.697 130.103 192.787L129.633 193.397C101.983 181.572 76.0811 160.648 59.4181 135.638C41.9371 109.398 36.1567 81.1325 42.2493 50.2684Z" fill="#0D0B0A"/>
<path d="M279.403 122.642C283.812 122.116 293.692 121.56 297.388 123.913C297.574 124.469 297.63 124.524 297.649 125.199C297.723 127.785 296.033 131.657 295.157 134.07C289.293 150.72 279.253 165.588 266 177.249C240.056 200.188 206.427 208.419 172.464 206.235C166.05 205.565 159.437 205.118 153.271 203.152C181.726 194.4 208.794 176.519 228.406 154.19C233.226 148.699 236.761 142.325 241.451 136.805C250.354 126.326 266.496 123.556 279.403 122.642Z" fill="#0D0B0A"/>
<path d="M7.56586 123.511C20.8263 121.947 38.8197 124.131 49.742 132.387C56.2357 137.296 60.149 146.411 65.5158 152.616C82.2989 172.051 103.319 187.376 126.957 197.408C131.99 199.563 137.173 201.812 142.495 203.122L131.855 204.899C100.874 209.357 68.7694 203.822 42.2609 186.586C24.209 174.846 11.4985 158.747 4.02587 138.667C2.92877 135.723 1.2866 132.526 0.725643 129.458C0.398003 127.666 0.686425 126.484 1.73338 124.965C3.39987 123.739 5.56627 123.754 7.56586 123.511Z" fill="#0D0B0A"/>
<path d="M548.63 96.7351C558.956 96.6492 570.219 95.7239 580.416 97.2116C586.978 98.1687 593.646 100.519 597.637 106.144C600.571 110.286 601.524 116.098 600.616 121.047C599.504 127.103 595.671 130.602 590.811 133.864C591.978 134.355 593.12 134.897 594.237 135.493C598.531 137.816 601.569 141.837 602.825 146.533C604.542 152.952 603.172 159.565 599.975 165.258C599.255 166.35 598.407 167.308 597.459 168.207C587.659 177.505 566.168 175.708 553.504 175.589C551.067 175.569 547.865 175.782 546.048 173.93C545.607 173.002 545.428 172.397 545.369 171.349C544.535 157.747 545.289 143.634 545.284 129.987C545.279 120.322 544.316 107.74 545.577 98.3991C546.55 97.1804 547.166 97.1863 548.63 96.7351ZM583.219 144.567C577.749 140.998 568.539 142.031 562.19 142.041L562.22 159.664C569.255 159.713 577.471 160.795 583.711 157.022C585.18 154.858 586.654 151.641 586.227 148.946C585.919 146.985 584.847 145.629 583.219 144.567ZM580.613 113.23C575.396 110.091 568.078 110.884 562.211 110.916V127.833C568.505 127.882 576.011 128.816 581.511 125.261C582.991 123.142 584.42 120.099 583.859 117.424C583.452 115.461 582.286 114.236 580.613 113.23Z" fill="#0D0B0A"/>
<path d="M452.355 115.054C453.929 114.923 455.512 115.007 457.061 115.305C461.787 116.251 464.096 119.722 466.623 123.431C466.767 122.135 466.861 120.736 467.164 119.47C467.476 118.15 468.196 117.341 469.382 116.706C471.289 115.69 475.389 115.62 477.384 116.362C478.844 116.906 480.468 118.175 480.969 119.703C482.454 124.218 481.872 168.388 481.013 174.429C480.447 178.41 479.211 182.336 477.201 185.826C473.964 191.456 468.459 195.13 462.269 196.808C453.542 199.166 443.613 198.416 435.824 193.725C432.349 191.635 430.726 188.939 429.807 185.062C430.1 183.662 430.448 182.302 431.649 181.394C435.551 178.445 443.98 183.389 448.309 184.193C452.037 184.883 456.053 184.506 459.151 182.163C464.259 178.311 465.104 171.192 465.977 165.319C462.557 168.973 459.315 171.911 454.271 173.148C448.806 174.493 442.819 173.57 438.118 170.452C431.927 166.352 428.477 159.317 427.212 152.174C425.668 143.477 427.013 133.072 432.285 125.789C437.314 118.852 444.229 116.298 452.355 115.054ZM453.287 128.371C449.216 129.905 446.967 131.786 445.224 135.842C443.075 140.826 443.01 148.049 445.11 153.048C446.217 155.684 448.441 158.459 451.241 159.402C453.088 160.023 455.322 159.754 457.223 159.62C460.574 158.424 462.481 157.019 464.069 153.768C466.516 148.769 466.591 141.719 464.724 136.497C463.642 133.464 461.503 130.485 458.465 129.175C456.911 128.505 454.965 128.287 453.287 128.371Z" fill="#0D0B0A"/>
<path d="M790.361 115.523C794.357 114.994 798.294 115.173 802.067 116.736C807.279 118.894 809.985 122.826 812.05 127.845C813.107 125.194 814.274 122.523 816.145 120.329C819.104 116.847 822.981 115.462 827.469 115.29C832.637 115.092 837.933 116.278 841.726 119.991C844.218 122.434 845.747 125.705 846.581 129.056C848.8 137.982 847.559 157.158 847.589 167.246C847.594 168.79 847.787 173.669 846.581 174.583C844.526 176.132 837.248 175.789 834.687 175.427C833.193 175.218 832.269 174.414 831.654 173.059C830.705 170.974 831.212 167.251 831.242 164.942C831.341 157.461 833.183 136.785 828.755 131.329C827.737 130.078 826.297 129.294 824.674 129.18C822.291 129.011 819.258 129.835 817.525 131.533C811.39 137.545 813.425 158.921 813.475 167.325C813.49 169.023 813.549 170.88 813.341 172.562C813.246 173.307 812.988 174.171 812.308 174.558C809.692 176.057 803.328 175.834 800.444 175.159C798.939 174.806 798.299 174.3 797.763 172.84C796.874 170.423 797.371 166.844 797.415 164.287C797.549 156.791 799.327 138.15 795.514 132.531C794.367 130.843 792.665 129.815 790.659 129.488C788.38 129.115 786.008 129.418 784.151 130.883C776.69 136.77 778.73 157.407 778.765 165.935C778.775 167.985 779.192 170.919 778.715 172.835C778.521 173.635 778.288 174.121 777.603 174.573C775.205 176.147 768.702 175.809 765.833 175.243C764.627 175.005 763.857 174.265 763.336 173.173C762.601 171.619 762.383 126.772 762.656 122.329C762.73 121.093 762.988 119.773 763.554 118.659C764.284 117.23 765.505 116.3 767.004 115.815C770.554 114.669 774.982 115.938 778.119 117.68C778.874 120.483 778.333 124.151 778.214 127.075C778.581 126.331 778.953 125.586 779.336 124.851C782.106 119.5 784.707 117.319 790.361 115.523Z" fill="#0D0B0A"/>
<path d="M725.833 115.755C742.349 115.413 756.075 128.415 756.621 144.931C757.167 161.442 744.334 175.322 727.828 176.072C716.971 176.568 706.686 171.182 700.902 161.979C695.124 152.77 694.737 141.169 699.899 131.603C705.057 122.032 714.966 115.981 725.833 115.755ZM729.266 129.121C727.508 128.599 725.602 128.718 723.8 128.882C719.362 130.853 716.949 133.112 715.231 137.749C713.176 143.294 713.509 151.038 716.14 156.33C717.559 159.179 719.759 161.492 722.822 162.515C724.922 163.22 726.888 163.334 729.037 162.828C733.291 161.045 735.834 158.777 737.581 154.418C739.77 148.953 739.75 141.645 737.233 136.289C735.66 132.938 732.86 130.183 729.266 129.121Z" fill="#0D0B0A"/>
<path d="M391.421 115.84C408.045 115.088 422.136 127.945 422.91 144.565C423.69 161.19 410.851 175.299 394.231 176.098C377.575 176.897 363.43 164.034 362.654 147.375C361.877 130.72 374.763 116.592 391.421 115.84ZM396.116 129.28C394.19 128.62 392.208 128.63 390.211 128.883C385.76 131.083 383.218 133.376 381.518 138.241C379.595 143.751 379.875 151.619 382.648 156.792C384.161 159.616 386.452 161.681 389.541 162.625C391.436 163.205 393.581 163.26 395.508 162.798C399.752 161.036 402.24 158.753 403.947 154.399C406.112 148.879 405.936 141.597 403.432 136.206C401.962 133.039 399.461 130.427 396.116 129.28Z" fill="#0D0B0A"/>
<path d="M658.233 116.175C668.94 114.443 679.747 118.594 686.543 127.045C693.334 135.499 695.062 146.952 691.066 157.034C687.064 167.112 677.96 174.27 667.223 175.77C650.866 178.058 635.715 166.749 633.252 150.417C630.785 134.085 641.93 118.814 658.233 116.175ZM666.53 129.334C664.663 128.674 662.642 128.689 660.692 128.853C656.224 130.754 653.653 132.908 651.846 137.534C649.726 142.96 649.935 150.471 652.442 155.743C653.956 158.925 656.532 161.542 659.938 162.624C661.64 163.17 663.571 163.165 665.328 162.946C669.786 161.065 672.383 158.96 674.23 154.328C676.374 148.947 676.339 141.521 673.842 136.264C672.358 133.141 669.836 130.506 666.53 129.334Z" fill="#0D0B0A"/>
<path d="M507.571 115.549C511.344 115.101 514.983 115.172 518.701 116.034C524.345 117.342 529.076 120.627 531.955 125.69C533.494 128.401 534.387 131.374 534.814 134.452C535.474 139.198 535.847 169.296 534.764 173.436C533.856 174.598 532.943 175.02 531.528 175.323C529.115 175.834 523.829 176.137 521.878 174.33C520.175 172.756 520.522 169.47 520.503 167.351C517.673 171.53 514.823 174.896 509.68 176.182C503.937 177.611 498.615 175.938 493.666 173.084C491.556 171.138 489.947 169.148 489.039 166.388C487.51 161.736 488.007 155.466 490.389 151.182C496.163 140.792 509.765 141.417 519.714 138.488L520.334 138.3C519.932 137.054 519.539 135.783 519.023 134.582C513.394 121.601 499.36 135.787 492.574 132.214C491.204 131.494 490.215 130.044 489.868 128.56C489.401 126.584 489.932 125.308 491.009 123.67C494.653 118.109 501.485 116.709 507.571 115.549ZM519.666 150.227C515.531 151.363 507.777 152.614 505.309 156.367C504.505 157.593 504.436 159.197 504.957 160.547C505.324 161.5 506.044 162.335 506.679 163.119C510.954 163.407 513.635 163.094 516.901 160.125C518.882 158.318 520.699 155.414 520.604 152.619C520.579 151.924 520.386 151.22 520.227 150.55L519.666 150.227Z" fill="#0D0B0A"/>
<path d="M338.877 126.723C340.358 122.017 351.886 99.4989 355.558 97.3842C357.466 96.2861 367.65 96.1183 369.695 97.0545C371.008 97.6552 371.149 98.0101 371.744 99.2358C370.696 105.066 357.814 124.633 354.004 131.012L347.309 142.142C347.335 148.833 348.512 169.256 346.179 174.101C345.36 174.727 344.781 175.074 343.758 175.313C340.615 176.047 334.361 175.829 331.59 174.087C329.445 171.262 330.567 147.816 330.571 142.628C327.149 137.158 305.065 101.896 305.647 98.5274C306.377 97.478 306.847 97.2154 308.029 96.7507C311.754 96.6405 319.329 95.6526 322.411 97.5241C326.41 99.9522 337.391 121.768 338.877 126.723Z" fill="#0D0B0A"/>
<path d="M612.364 96.7406C616.271 96.6393 622.664 95.6619 626.035 97.6813C626.983 104.117 626.611 110.928 626.626 117.42L626.666 147.483C626.666 155.331 627.529 164.778 626.517 172.483C626.318 174.017 625.37 174.518 624.258 175.397C620.187 175.531 613.927 176.539 610.577 173.893C609.787 170.884 609.291 101.486 610.05 98.7447C610.413 97.446 611.267 97.2976 612.364 96.7406Z" fill="#0D0B0A"/>
<path d="M149.133 205.222C154.524 207.138 159.946 208.672 165.601 209.591C175.342 211.169 186.658 210.708 195.409 215.781C201.872 219.529 208.49 228.306 210.317 235.583C210.651 236.919 210.554 237.028 209.87 238.135C203.106 240.572 196.537 239.992 189.807 237.788C173.595 232.486 157.069 220.671 149.133 205.222Z" fill="#0D0B0A"/>
<path d="M146.084 205.262C146.427 205.232 146.755 205.411 147.085 205.505C147.068 205.659 147.071 205.818 147.035 205.972C146.202 209.422 132.855 223.49 129.773 225.928C119.124 234.337 103.311 241.014 89.5721 239.371C89.2048 239.292 88.6945 239.192 88.3599 239.038C87.6202 238.696 87.1516 238.423 86.9565 237.624C86.4357 235.474 87.6574 232.982 88.6344 231.115C91.7817 225.099 96.7102 218.04 102.885 214.788C110.495 210.787 121.733 210.802 130.191 209.298C135.61 208.335 140.831 206.865 146.084 205.262Z" fill="#0D0B0A"/>
</g>
<defs>
<clipPath id="clip0_11235_741">
<rect width="847.307" height="239.575" fill="white" transform="translate(0.597519 0.143677)"/>
</clipPath>
</defs>
</svg>
