<svg width="84" height="37" viewBox="0 0 84 37" fill="none" xmlns="http://www.w3.org/2000/svg">
    <g clip-path="url(#clip0_8202_63085)">
        <path d="M14.7724 3.45215C15.1456 3.63751 15.5652 4.16981 15.847 4.48455C18.2639 7.1845 19.5317 10.6233 19.3074 14.2431C19.0904 17.746 17.3604 20.8565 14.7639 23.1553C14.2722 22.8192 13.8223 22.3408 13.429 21.896C11.2232 19.4014 10.0141 15.8964 10.2248 12.5711C10.442 9.14273 12.1945 5.71226 14.7724 3.45215Z" fill="#0D0B0A"/>
        <path d="M25.0582 8.35498C25.0653 8.36711 25.0735 8.37875 25.0797 8.39142C25.2172 8.67153 25.257 9.11595 25.2919 9.42684C25.4736 11.0436 25.3232 12.6647 24.7546 14.1955C23.334 18.0199 20.0503 20.8351 16.4197 22.504C16.3769 22.5036 16.4056 22.507 16.3403 22.469C16.5622 22.106 16.8716 21.7816 17.1276 21.4406C17.5191 20.9082 17.8739 20.3499 18.1894 19.7697C19.3015 17.7232 19.8334 15.4726 19.8317 13.1516C19.8313 12.4923 19.8162 11.8339 19.6254 11.1977C19.9659 10.8198 20.3831 10.5013 20.7881 10.1948C22.0932 9.20714 23.4082 8.51978 25.0582 8.35498Z" fill="#0D0B0A"/>
        <path d="M4.44035 8.37109C4.63628 8.37864 4.83396 8.40408 5.02774 8.43355C6.51914 8.66046 7.82405 9.45465 8.98911 10.3738C9.31427 10.6303 9.67004 10.8978 9.91488 11.2349C9.29542 14.4174 10.117 17.7545 11.7626 20.5068C12.0254 20.9443 12.3093 21.3686 12.6134 21.7788C12.7585 21.9741 12.9313 22.1514 13.0615 22.3565L13.0154 22.4164C10.3021 21.2561 7.76028 19.2028 6.12513 16.7485C4.4097 14.1735 3.84247 11.3998 4.44035 8.37109Z" fill="#0D0B0A"/>
        <path d="M27.7125 15.473C28.1451 15.4214 29.1147 15.3668 29.4773 15.5978C29.4956 15.6523 29.5011 15.6577 29.503 15.7239C29.5102 15.9777 29.3444 16.3577 29.2584 16.5944C28.683 18.2283 27.6978 19.6873 26.3972 20.8316C23.8513 23.0827 20.5513 23.8904 17.2185 23.6761C16.589 23.6103 15.94 23.5665 15.335 23.3736C18.1273 22.5147 20.7835 20.76 22.708 18.5688C23.1811 18.0301 23.5279 17.4046 23.9882 16.8629C24.8618 15.8345 26.4459 15.5627 27.7125 15.473Z" fill="#0D0B0A"/>
        <path d="M1.03684 15.5583C2.3381 15.4049 4.1038 15.6192 5.17562 16.4293C5.81285 16.9111 6.19686 17.8055 6.72352 18.4145C8.37045 20.3216 10.4332 21.8254 12.7528 22.81C13.2467 23.0214 13.7552 23.2421 14.2775 23.3707L13.2335 23.5451C10.1933 23.9825 7.04279 23.4394 4.44149 21.748C2.67004 20.5959 1.42275 19.0161 0.689454 17.0456C0.581795 16.7567 0.420648 16.443 0.3656 16.1419C0.333449 15.9661 0.361752 15.8501 0.46449 15.7011C0.628025 15.5807 0.840615 15.5822 1.03684 15.5583Z" fill="#0D0B0A"/>
        <path d="M54.1319 12.9311C55.1452 12.9226 56.2505 12.8319 57.2511 12.9779C57.8949 13.0718 58.5489 13.3022 58.9405 13.8539C59.2284 14.2604 59.3226 14.8312 59.2335 15.3168C59.1243 15.911 58.7475 16.2546 58.2706 16.5746C58.3851 16.6228 58.4979 16.6753 58.6075 16.7338C59.0289 16.9618 59.3271 17.357 59.4503 17.8178C59.6187 18.4475 59.4836 19.096 59.17 19.6547C59.0994 19.7619 59.016 19.8565 58.9229 19.9447C57.9612 20.8567 55.853 20.6801 54.6104 20.6684C54.3713 20.6664 54.0563 20.688 53.878 20.5062C53.8347 20.4152 53.8175 20.3551 53.8116 20.2523C53.7298 18.9177 53.8043 17.5328 53.8038 16.1937C53.8033 15.2453 53.7084 14.0107 53.8321 13.0941C53.9276 12.9745 53.9882 12.9753 54.1319 12.9311ZM57.5265 17.6244C56.9898 17.2742 56.086 17.3753 55.463 17.3764L55.4649 19.1059C56.1552 19.1107 56.962 19.2173 57.5743 18.8471C57.7185 18.6347 57.8633 18.3186 57.8214 18.0541C57.7912 17.8619 57.6861 17.7286 57.5265 17.6244ZM57.2706 14.5492C56.7586 14.2411 56.0398 14.3196 55.464 14.3227V15.9828C56.0817 15.9877 56.8187 16.0787 57.3585 15.7299C57.5036 15.522 57.6438 15.2237 57.589 14.9613C57.549 14.7688 57.4347 14.6479 57.2706 14.5492Z" fill="#0D0B0A"/>
        <path d="M44.6848 14.7281C44.8392 14.7152 44.9948 14.7233 45.1467 14.7525C45.6103 14.8454 45.8363 15.1866 46.0842 15.5503C46.0983 15.4232 46.1082 15.2859 46.1379 15.1617C46.1686 15.0322 46.2393 14.9524 46.3557 14.8902C46.5429 14.7906 46.9451 14.7842 47.1409 14.857C47.2839 14.9103 47.4431 15.0344 47.4924 15.1841C47.6381 15.627 47.5816 19.9624 47.4973 20.5552C47.4417 20.9457 47.3205 21.3311 47.1233 21.6734C46.8057 22.2258 46.2649 22.5859 45.6575 22.7505C44.8011 22.9819 43.8271 22.9082 43.0627 22.4478C42.7217 22.2427 42.562 21.9787 42.4719 21.5982C42.5007 21.4608 42.5347 21.327 42.6526 21.2378C43.0354 20.9486 43.8625 21.4342 44.2873 21.5132C44.6532 21.581 45.0478 21.544 45.3518 21.314C45.8531 20.936 45.936 20.237 46.0217 19.6607C45.6861 20.0192 45.3672 20.308 44.8723 20.4293C44.3361 20.5611 43.7486 20.4705 43.2873 20.1646C42.6799 19.7622 42.3412 19.0716 42.217 18.3707C42.0656 17.5173 42.1978 16.4964 42.7151 15.7818C43.2086 15.1011 43.8873 14.8502 44.6848 14.7281ZM44.7756 16.0347C44.3763 16.1852 44.1556 16.3702 43.9846 16.7681C43.7737 17.2572 43.7678 17.9661 43.9739 18.4566C44.0825 18.7153 44.3007 18.9881 44.5754 19.0806C44.7566 19.1414 44.9758 19.1153 45.1623 19.1021C45.4912 18.9847 45.6783 18.846 45.8342 18.5269C46.0742 18.0364 46.0817 17.3449 45.8987 16.8326C45.7925 16.535 45.5824 16.2425 45.2844 16.1138C45.1319 16.0481 44.9403 16.0264 44.7756 16.0347Z" fill="#0D0B0A"/>
        <path d="M77.8534 14.7744C78.2455 14.7224 78.6319 14.74 79.0021 14.8934C79.5136 15.1052 79.7791 15.491 79.9817 15.9835C80.0855 15.7234 80.2 15.4613 80.3836 15.246C80.674 14.9043 81.0544 14.7684 81.4948 14.7515C82.0019 14.732 82.5217 14.8485 82.8939 15.2128C83.1384 15.4525 83.2885 15.7735 83.3703 16.1024C83.5881 16.9783 83.4663 18.8601 83.4692 19.85C83.4697 20.0015 83.4887 20.4803 83.3703 20.57C83.1686 20.722 82.4545 20.6883 82.2031 20.6528C82.0565 20.6323 81.9659 20.5534 81.9055 20.4204C81.8124 20.2158 81.8621 19.8505 81.865 19.6239C81.8748 18.8898 82.0555 16.8608 81.621 16.3255C81.5211 16.2027 81.3798 16.1257 81.2205 16.1145C80.9867 16.098 80.6891 16.1788 80.5191 16.3455C79.9169 16.9354 80.1167 19.033 80.1215 19.8578C80.123 20.0244 80.1289 20.2066 80.1084 20.3717C80.0991 20.4448 80.0738 20.5295 80.0071 20.5675C79.7503 20.7147 79.1258 20.6927 78.8428 20.6265C78.6952 20.5919 78.6323 20.5422 78.5797 20.399C78.4925 20.1617 78.5412 19.8105 78.5456 19.5596C78.5588 18.824 78.7332 16.9948 78.3591 16.4434C78.2465 16.2777 78.0794 16.1769 77.8826 16.1447C77.659 16.1082 77.4262 16.1379 77.244 16.2816C76.5118 16.8594 76.712 18.8844 76.7154 19.7214C76.7164 19.9226 76.7573 20.2105 76.7106 20.3985C76.6916 20.4769 76.6687 20.5247 76.6014 20.569C76.3661 20.7234 75.728 20.6903 75.4464 20.6348C75.328 20.6114 75.2525 20.5388 75.2014 20.4316C75.1293 20.2791 75.1079 15.8783 75.1346 15.4423C75.142 15.321 75.1673 15.1914 75.2228 15.0821C75.2944 14.9419 75.4143 14.8506 75.5614 14.8031C75.9097 14.6906 76.3442 14.8151 76.6521 14.9861C76.7261 15.2611 76.673 15.6211 76.6614 15.908C76.6974 15.8349 76.7339 15.7619 76.7715 15.6898C77.0433 15.1646 77.2985 14.9506 77.8534 14.7744Z" fill="#0D0B0A"/>
        <path d="M71.5208 14.797C73.1415 14.7635 74.4887 16.0396 74.5423 17.6603C74.5959 19.2805 73.3368 20.6423 71.7171 20.716C70.6517 20.7647 69.642 20.2363 69.0745 19.3332C68.5076 18.4297 68.4695 17.2913 68.9759 16.3527C69.482 15.4136 70.4546 14.8193 71.5208 14.797ZM71.3216 16.0851C70.8861 16.2785 70.6493 16.5003 70.4808 16.9552C70.2791 17.4992 70.3116 18.2592 70.5696 18.7785C70.709 19.0581 70.9253 19.2855 71.2259 19.3859C71.4318 19.455 71.6245 19.4658 71.8353 19.4162C72.2527 19.2413 72.5027 19.0187 72.6741 18.591C72.8888 18.0548 72.8867 17.3382 72.6399 16.8127C72.4855 16.4838 72.2104 16.2128 71.8577 16.1086C71.6853 16.0575 71.4983 16.0691 71.3216 16.0851Z" fill="#0D0B0A"/>
        <path d="M38.7044 14.8058C40.3357 14.7321 41.7181 15.9933 41.7943 17.6242C41.8708 19.2555 40.6117 20.6403 38.9808 20.7189C37.3465 20.7973 35.9586 19.5352 35.8822 17.9005C35.8059 16.2663 37.0699 14.8798 38.7044 14.8058ZM39.1654 16.1242C38.9764 16.0595 38.782 16.0603 38.5863 16.0851C38.1495 16.3009 37.8996 16.5266 37.7328 17.004C37.5442 17.5448 37.5721 18.3168 37.8441 18.8244C37.9925 19.1013 38.217 19.3041 38.5199 19.3966C38.7059 19.4536 38.9167 19.4585 39.1058 19.4132C39.5221 19.2403 39.7665 19.0162 39.9339 18.589C40.1463 18.0474 40.1288 17.3328 39.8832 16.8039C39.7389 16.4932 39.4935 16.2367 39.1654 16.1242Z" fill="#0D0B0A"/>
        <path d="M64.8875 14.8377C65.9381 14.6679 66.998 15.076 67.6648 15.9051C68.3312 16.7347 68.5012 17.8582 68.1092 18.8475C67.7165 19.8364 66.823 20.5393 65.7693 20.6864C64.1642 20.9109 62.677 19.8008 62.4353 18.1981C62.1934 16.5955 63.2878 15.0967 64.8875 14.8377ZM65.1287 16.0819C64.6903 16.2685 64.4379 16.4804 64.2605 16.9344C64.0526 17.4669 64.0731 18.2042 64.3191 18.7215C64.4677 19.0336 64.7205 19.2902 65.0545 19.3963C65.2216 19.4499 65.4114 19.449 65.5838 19.4276C66.021 19.243 66.2757 19.0363 66.4568 18.5819C66.6672 18.0538 66.6637 17.3252 66.4187 16.8094C66.2731 16.5031 66.0254 16.2447 65.701 16.1297C65.518 16.0651 65.32 16.0658 65.1287 16.0819Z" fill="#0D0B0A"/>
        <path d="M50.1029 14.777C50.4731 14.733 50.83 14.7403 51.1947 14.8248C51.7486 14.9532 52.213 15.2753 52.4955 15.7721C52.6465 16.0381 52.7339 16.3304 52.7758 16.6325C52.8405 17.0995 52.8771 20.0515 52.7709 20.4577C52.6818 20.5715 52.5923 20.6125 52.4535 20.6422C52.2168 20.6924 51.6977 20.7229 51.5063 20.5456C51.3392 20.3911 51.3734 20.068 51.3715 19.86C51.0939 20.2701 50.8145 20.601 50.31 20.7272C49.7463 20.8675 49.2234 20.7026 48.7377 20.4225C48.531 20.2318 48.3737 20.0366 48.2846 19.7663C48.1346 19.3099 48.1828 18.6945 48.4164 18.2741C48.983 17.2545 50.3181 17.3154 51.2943 17.028L51.3549 17.0094C51.3155 16.8874 51.2775 16.7628 51.227 16.6452C50.6746 15.3715 49.2973 16.7628 48.6313 16.4127C48.4968 16.3421 48.3997 16.199 48.3656 16.0534C48.32 15.8597 48.3723 15.7345 48.4779 15.5739C48.8355 15.0284 49.5058 14.8908 50.1029 14.777ZM51.2895 18.1803C50.8836 18.2919 50.1223 18.4146 49.8803 18.7829C49.8016 18.9031 49.795 19.0607 49.8461 19.193C49.8822 19.2864 49.9528 19.3681 50.015 19.445C50.4345 19.4732 50.6974 19.4423 51.018 19.151C51.2123 18.9737 51.3905 18.689 51.3813 18.4147C51.3788 18.3465 51.3597 18.2773 51.3441 18.2116L51.2895 18.1803Z" fill="#0D0B0A"/>
        <path d="M33.5486 15.8733C33.6939 15.4115 34.8251 13.2018 35.1855 12.9943C35.3727 12.8866 36.3721 12.8701 36.5728 12.962C36.7016 13.0209 36.7155 13.0557 36.7739 13.176C36.671 13.7481 35.4069 15.6682 35.033 16.2942L34.376 17.3864C34.3786 18.0431 34.4941 20.0472 34.2652 20.5226C34.1848 20.584 34.128 20.6181 34.0275 20.6415C33.7192 20.7136 33.1054 20.6922 32.8335 20.5212C32.623 20.244 32.7331 17.9432 32.7335 17.4341C32.3977 16.8973 30.2305 13.437 30.2877 13.1065C30.3593 13.0035 30.4055 12.9778 30.5215 12.9322C30.887 12.9213 31.6303 12.8244 31.9328 13.0081C32.3252 13.2463 33.4027 15.3872 33.5486 15.8733Z" fill="#0D0B0A"/>
        <path d="M60.3861 12.9313C60.7695 12.9214 61.3969 12.8254 61.7277 13.0236C61.8207 13.6552 61.7842 14.3236 61.7857 14.9606L61.7896 17.9107C61.7896 18.6809 61.8743 19.6079 61.7749 20.364C61.7555 20.5145 61.6624 20.5637 61.5533 20.6499C61.1538 20.6631 60.5396 20.762 60.2107 20.5023C60.1333 20.2071 60.0846 13.397 60.1591 13.128C60.1946 13.0005 60.2784 12.986 60.3861 12.9313Z" fill="#0D0B0A"/>
        <path d="M14.9292 23.5767C15.4581 23.7647 15.9903 23.9152 16.5452 24.0053C17.501 24.1603 18.6115 24.1149 19.4703 24.6128C20.1045 24.9806 20.7539 25.8419 20.9332 26.556C20.966 26.6871 20.9565 26.6978 20.8894 26.8064C20.2256 27.0456 19.581 26.9886 18.9205 26.7723C17.3296 26.2521 15.7079 25.0927 14.9292 23.5767Z" fill="#0D0B0A"/>
        <path d="M14.6299 23.5804C14.6635 23.5775 14.6957 23.595 14.7281 23.6043C14.7265 23.6194 14.7268 23.635 14.7232 23.6501C14.6415 23.9886 13.3317 25.3692 13.0293 25.6084C11.9842 26.4336 10.4325 27.0888 9.08431 26.9276C9.04826 26.9198 8.99818 26.91 8.96535 26.8949C8.89277 26.8613 8.84678 26.8345 8.82764 26.7561C8.77653 26.5452 8.89642 26.3006 8.99229 26.1174C9.30114 25.527 9.78478 24.8343 10.3907 24.5152C11.1375 24.1226 12.2403 24.1241 13.0703 23.9765C13.602 23.8819 14.1144 23.7378 14.6299 23.5804Z" fill="#0D0B0A"/>
    </g>
    <defs>
        <clipPath id="clip0_8202_63085">
            <rect width="83.147" height="23.5097" fill="white" transform="translate(0.353027 3.45215)"/>
        </clipPath>
    </defs>
</svg>